<?xml version="1.0" encoding="utf-8"?>
<!-- Generator: Adobe Illustrator 21.0.0, SVG Export Plug-In . SVG Version: 6.00 Build 0)  -->
<svg version="1.1" id="Слой_1" xmlns="http://www.w3.org/2000/svg" xmlns:xlink="http://www.w3.org/1999/xlink" x="0px" y="0px"
	 viewBox="0 0 432 416" style="enable-background:new 0 0 432 416;" xml:space="preserve">
<style type="text/css">
	.st0{fill:#DF609C;}
	.st1{fill:#FFFFFF;}
</style>
<g>
	<path class="st0" d="M63.7,382.8c5-7.7,10.1-14.9,14.6-22.5c6.9-11.5,11.9-23.8,14.6-37c0.8-4.1,0.4-6.8-3.6-9.6
		c-26.8-19.1-47.8-43.3-58.9-74.7c-18.3-52.1-8.7-99.7,25.8-142.1C84.5,62,122,42.1,165.5,33.7c46.9-9.1,92.3-3.6,135,18.4
		c40.2,20.7,70,51.4,83.9,95.2c13.6,42.7,7.6,83.5-16.6,121.2c-24.1,37.6-59.1,60.9-101.3,73.8c-28.5,8.7-57.6,10.7-87.1,6.9
		c-5.6-0.7-11-2.1-16.6-2.9c-1.3-0.2-3.2,0.3-4.1,1.3c-19.5,20.4-43.1,32.5-71.2,35.2C79.8,383.4,71.9,382.8,63.7,382.8z
		 M212.6,230.4c0.1-1.3,0.4-2.3,0.3-3.3c-0.7-11.9,4.5-21.2,12.7-29.2c5.7-5.6,11.4-11.2,16.9-17c4.7-5,9.4-10,11.3-16.9
		c5.2-18.1-1.7-37.9-17.2-48.6c-13.4-9.3-28.5-10-43.9-7.2c-23.5,4.4-38,24.7-38.3,50.5c6.5,0,13.1,0,19.7,0
		c0.3-2.2,0.3-4.2,0.9-6.1c1.7-5.9,2.5-12.5,5.7-17.6c7.2-11.2,18.9-12.4,31-11c11.7,1.4,18.2,7.3,21,18.7
		c2.8,11.4-1.1,20.8-8.8,29.1c-6.7,7.2-13.8,14.1-20.3,21.5c-9.1,10.5-10.8,23.4-10.8,36.9C199.6,230.4,205.9,230.4,212.6,230.4z
		 M214.5,272c0-7.2,0-14.1-0.1-21.1c0-0.7-1.1-1.8-1.6-1.9c-6.6-0.1-13.1-0.1-19.7-0.1c0,8,0,15.4,0,23
		C200.2,272,207.1,272,214.5,272z"/>
	<path class="st1" d="M212.6,230.4c-6.7,0-13,0-19.7,0c0-13.6,1.7-26.4,10.8-36.9c6.5-7.4,13.5-14.3,20.3-21.5
		c7.7-8.2,11.6-17.7,8.8-29.1c-2.8-11.4-9.3-17.3-21-18.7c-12.1-1.4-23.8-0.2-31,11c-3.2,5-4,11.6-5.7,17.6
		c-0.6,1.9-0.6,3.9-0.9,6.1c-6.7,0-13.2,0-19.7,0c0.3-25.8,14.8-46.2,38.3-50.5c15.4-2.9,30.4-2.1,43.9,7.2
		c15.5,10.7,22.4,30.5,17.2,48.6c-2,6.9-6.7,11.9-11.3,16.9c-5.5,5.8-11.2,11.4-16.9,17c-8.2,8.1-13.4,17.3-12.7,29.2
		C213,228.1,212.7,229.1,212.6,230.4z"/>
	<path class="st1" d="M214.5,272c-7.4,0-14.3,0-21.4,0c0-7.6,0-15,0-23c6.6,0,13.2,0,19.7,0.1c0.6,0,1.6,1.2,1.6,1.9
		C214.5,257.9,214.5,264.9,214.5,272z"/>
</g>
</svg>
